<mxfile host="Electron" modified="2023-06-23T07:00:53.106Z" agent="Mozilla/5.0 (Windows NT 10.0; Win64; x64) AppleWebKit/537.36 (KHTML, like Gecko) draw.io/21.2.8 Chrome/112.0.5615.165 Electron/24.2.0 Safari/537.36" etag="6Bg3m59fZYF4St6FE8gC" version="21.2.8" type="device">
  <diagram id="C5RBs43oDa-KdzZeNtuy" name="Page-1">
    <mxGraphModel dx="1288" dy="953" grid="1" gridSize="10" guides="1" tooltips="1" connect="1" arrows="1" fold="1" page="1" pageScale="1" pageWidth="1654" pageHeight="1169" math="0" shadow="0">
      <root>
        <mxCell id="WIyWlLk6GJQsqaUBKTNV-0" />
        <mxCell id="WIyWlLk6GJQsqaUBKTNV-1" parent="WIyWlLk6GJQsqaUBKTNV-0" />
        <mxCell id="9_fdUrSxjmN1W93VfHhp-2" value="" style="rounded=0;whiteSpace=wrap;html=1;fillColor=#dae8fc;strokeColor=#6c8ebf;" parent="WIyWlLk6GJQsqaUBKTNV-1" vertex="1">
          <mxGeometry x="1000" y="17" width="390" height="470" as="geometry" />
        </mxCell>
        <mxCell id="9_fdUrSxjmN1W93VfHhp-0" value="&lt;p style=&quot;margin:0px;margin-top:4px;text-align:center;&quot;&gt;&lt;i&gt;&amp;lt;&amp;lt;enumeration&amp;gt;&amp;gt;&lt;/i&gt;&lt;br&gt;&lt;b&gt;Unit&lt;/b&gt;&lt;/p&gt;&lt;hr size=&quot;1&quot;&gt;&lt;p style=&quot;margin:0px;margin-left:4px;&quot;&gt;&lt;br&gt;&lt;/p&gt;" style="verticalAlign=top;align=left;overflow=fill;fontSize=12;fontFamily=Verdana;html=1;sketch=1;strokeWidth=2;" parent="WIyWlLk6GJQsqaUBKTNV-1" vertex="1">
          <mxGeometry x="1015" y="167" width="140" height="80" as="geometry" />
        </mxCell>
        <mxCell id="9_fdUrSxjmN1W93VfHhp-4" value="Dependent Elements from eCH-0261&lt;br&gt;Local and Legal Units, Common Elements" style="text;html=1;strokeColor=none;fillColor=none;align=left;verticalAlign=middle;whiteSpace=wrap;rounded=0;strokeWidth=2;fontFamily=Verdana;" parent="WIyWlLk6GJQsqaUBKTNV-1" vertex="1">
          <mxGeometry x="1010" y="19" width="290" height="30" as="geometry" />
        </mxCell>
        <mxCell id="9_fdUrSxjmN1W93VfHhp-14" style="edgeStyle=orthogonalEdgeStyle;rounded=0;orthogonalLoop=1;jettySize=auto;html=1;exitX=1.014;exitY=0.379;exitDx=0;exitDy=0;exitPerimeter=0;" parent="WIyWlLk6GJQsqaUBKTNV-1" source="A5fvS7BDDAw0l9XVEY4Y-33" target="9_fdUrSxjmN1W93VfHhp-12" edge="1">
          <mxGeometry relative="1" as="geometry">
            <mxPoint x="1149.9999999999998" y="147" as="sourcePoint" />
            <Array as="points">
              <mxPoint x="1190" y="97" />
              <mxPoint x="1190" y="107" />
            </Array>
          </mxGeometry>
        </mxCell>
        <mxCell id="9_fdUrSxjmN1W93VfHhp-15" style="edgeStyle=orthogonalEdgeStyle;rounded=0;orthogonalLoop=1;jettySize=auto;html=1;exitX=1;exitY=0.75;exitDx=0;exitDy=0;" parent="WIyWlLk6GJQsqaUBKTNV-1" source="A5fvS7BDDAw0l9XVEY4Y-33" target="9_fdUrSxjmN1W93VfHhp-13" edge="1">
          <mxGeometry relative="1" as="geometry">
            <mxPoint x="1149.9999999999998" y="187" as="sourcePoint" />
            <Array as="points">
              <mxPoint x="1180" y="127" />
              <mxPoint x="1180" y="207" />
            </Array>
          </mxGeometry>
        </mxCell>
        <mxCell id="9_fdUrSxjmN1W93VfHhp-12" value="&lt;p style=&quot;margin:0px;margin-top:4px;text-align:center;&quot;&gt;&lt;b&gt;Identifier&lt;/b&gt;&lt;/p&gt;&lt;hr size=&quot;1&quot;&gt;&lt;p style=&quot;margin:0px;margin-left:4px;&quot;&gt;&lt;br&gt;&lt;/p&gt;" style="verticalAlign=top;align=left;overflow=fill;fontSize=12;fontFamily=Verdana;html=1;sketch=1;strokeWidth=2;" parent="WIyWlLk6GJQsqaUBKTNV-1" vertex="1">
          <mxGeometry x="1225" y="67" width="140" height="70" as="geometry" />
        </mxCell>
        <mxCell id="9_fdUrSxjmN1W93VfHhp-13" value="&lt;p style=&quot;margin:0px;margin-top:4px;text-align:center;&quot;&gt;&lt;b&gt;Descriptor&lt;/b&gt;&lt;/p&gt;&lt;hr size=&quot;1&quot;&gt;&lt;p style=&quot;margin:0px;margin-left:4px;&quot;&gt;&lt;br&gt;&lt;/p&gt;" style="verticalAlign=top;align=left;overflow=fill;fontSize=12;fontFamily=Verdana;html=1;sketch=1;strokeWidth=2;" parent="WIyWlLk6GJQsqaUBKTNV-1" vertex="1">
          <mxGeometry x="1220" y="167" width="140" height="80" as="geometry" />
        </mxCell>
        <mxCell id="A5fvS7BDDAw0l9XVEY4Y-33" value="&lt;p style=&quot;margin:0px;margin-top:4px;text-align:center;&quot;&gt;&lt;b&gt;EnumeratedItem&lt;/b&gt;&lt;/p&gt;&lt;hr size=&quot;1&quot;&gt;&lt;p style=&quot;margin:0px;margin-left:4px;&quot;&gt;&lt;br&gt;&lt;/p&gt;" style="verticalAlign=top;align=left;overflow=fill;fontSize=12;fontFamily=Verdana;html=1;sketch=1;strokeWidth=2;" parent="WIyWlLk6GJQsqaUBKTNV-1" vertex="1">
          <mxGeometry x="1010" y="67" width="140" height="80" as="geometry" />
        </mxCell>
        <mxCell id="A5fvS7BDDAw0l9XVEY4Y-48" value="" style="endArrow=classic;html=1;fontFamily=Comic Sans MS;curved=1;exitX=0.148;exitY=-0.05;exitDx=0;exitDy=0;exitPerimeter=0;entryX=0.5;entryY=1;entryDx=0;entryDy=0;" parent="WIyWlLk6GJQsqaUBKTNV-1" target="AsWOrN72vH-odrBC8Jqx-6" edge="1">
          <mxGeometry width="50" height="50" relative="1" as="geometry">
            <mxPoint x="601.56" y="365" as="sourcePoint" />
            <mxPoint x="576.7755805243446" y="318" as="targetPoint" />
          </mxGeometry>
        </mxCell>
        <mxCell id="A5fvS7BDDAw0l9XVEY4Y-54" value="&lt;p style=&quot;margin:0px;margin-top:4px;text-align:center;&quot;&gt;&lt;b&gt;LocalUnit&lt;/b&gt;&lt;/p&gt;&lt;hr size=&quot;1&quot;&gt;&lt;p style=&quot;margin:0px;margin-left:4px;&quot;&gt;&amp;nbsp;&lt;br&gt;&lt;/p&gt;&lt;hr size=&quot;1&quot;&gt;&lt;p style=&quot;margin:0px;margin-left:4px;&quot;&gt;&lt;br&gt;&lt;/p&gt;" style="verticalAlign=top;align=left;overflow=fill;fontSize=12;fontFamily=Verdana;html=1;sketch=1;strokeWidth=2;" parent="WIyWlLk6GJQsqaUBKTNV-1" vertex="1">
          <mxGeometry x="1015" y="270" width="145" height="90" as="geometry" />
        </mxCell>
        <mxCell id="A5fvS7BDDAw0l9XVEY4Y-61" value="" style="endArrow=classic;html=1;fontFamily=Verdana;curved=1;" parent="WIyWlLk6GJQsqaUBKTNV-1" source="A5fvS7BDDAw0l9XVEY4Y-54" target="Fh2eQYCEiK_2gspSJ3Qt-0" edge="1">
          <mxGeometry width="50" height="50" relative="1" as="geometry">
            <mxPoint x="1265" y="761" as="sourcePoint" />
            <mxPoint x="1179.72" y="316.336" as="targetPoint" />
          </mxGeometry>
        </mxCell>
        <mxCell id="A5fvS7BDDAw0l9XVEY4Y-96" value="" style="swimlane;startSize=0;fontFamily=Verdana;strokeWidth=2;" parent="WIyWlLk6GJQsqaUBKTNV-1" vertex="1">
          <mxGeometry x="100" y="20" width="228.3" height="100" as="geometry" />
        </mxCell>
        <mxCell id="9_fdUrSxjmN1W93VfHhp-1" value="&lt;h1&gt;&lt;span style=&quot;background-color: initial;&quot;&gt;eCH-0262&lt;/span&gt;&lt;/h1&gt;&lt;div&gt;&lt;br&gt;&lt;/div&gt;" style="text;html=1;strokeColor=none;fillColor=none;spacing=5;spacingTop=-20;whiteSpace=wrap;overflow=hidden;rounded=0;strokeWidth=2;fontFamily=Verdana;" parent="A5fvS7BDDAw0l9XVEY4Y-96" vertex="1">
          <mxGeometry x="15.3" width="195.7" height="80" as="geometry" />
        </mxCell>
        <mxCell id="A5fvS7BDDAw0l9XVEY4Y-100" value="Calculators -- Humus" style="text;html=1;strokeColor=none;fillColor=none;align=left;verticalAlign=middle;whiteSpace=wrap;rounded=0;strokeWidth=2;fontFamily=Verdana;" parent="A5fvS7BDDAw0l9XVEY4Y-96" vertex="1">
          <mxGeometry x="23.6" y="50" width="226.4" height="30" as="geometry" />
        </mxCell>
        <mxCell id="A5fvS7BDDAw0l9XVEY4Y-97" value="&lt;br&gt;For Visualisation Purposes Only.&lt;br&gt;1-1 correspondence to XSD not guaranteed &lt;br&gt;(e.g. XSD has &quot;choice&quot; construct)&lt;br&gt;&lt;br&gt;Default Cardinality: 1&lt;br&gt;Attributes not depicted by default" style="text;html=1;strokeColor=none;fillColor=none;align=left;verticalAlign=middle;whiteSpace=wrap;rounded=0;strokeWidth=2;fontFamily=Verdana;" parent="WIyWlLk6GJQsqaUBKTNV-1" vertex="1">
          <mxGeometry x="339" y="40" width="450" height="30" as="geometry" />
        </mxCell>
        <mxCell id="Fh2eQYCEiK_2gspSJ3Qt-0" value="&lt;p style=&quot;margin:0px;margin-top:4px;text-align:center;&quot;&gt;&lt;b&gt;LegalUnit&lt;/b&gt;&lt;/p&gt;&lt;hr size=&quot;1&quot;&gt;&lt;p style=&quot;margin:0px;margin-left:4px;&quot;&gt;&amp;nbsp;&lt;br&gt;&lt;/p&gt;&lt;hr size=&quot;1&quot;&gt;&lt;p style=&quot;margin:0px;margin-left:4px;&quot;&gt;&lt;br&gt;&lt;/p&gt;" style="verticalAlign=top;align=left;overflow=fill;fontSize=12;fontFamily=Verdana;html=1;sketch=1;strokeWidth=2;" parent="WIyWlLk6GJQsqaUBKTNV-1" vertex="1">
          <mxGeometry x="1215" y="270" width="150" height="90" as="geometry" />
        </mxCell>
        <mxCell id="3pSlS8YH4z9lj6zPETBl-0" value="" style="rounded=0;whiteSpace=wrap;html=1;fillColor=#dae8fc;strokeColor=#6c8ebf;" parent="WIyWlLk6GJQsqaUBKTNV-1" vertex="1">
          <mxGeometry x="180" y="140" width="279" height="160" as="geometry" />
        </mxCell>
        <mxCell id="3pSlS8YH4z9lj6zPETBl-1" value="Dependent Elements&lt;br&gt;from eCH-0263&lt;br&gt;Resources" style="text;html=1;strokeColor=none;fillColor=none;align=left;verticalAlign=middle;whiteSpace=wrap;rounded=0;strokeWidth=2;fontFamily=Comic Sans MS;" parent="WIyWlLk6GJQsqaUBKTNV-1" vertex="1">
          <mxGeometry x="299" y="232" width="290" height="30" as="geometry" />
        </mxCell>
        <mxCell id="3pSlS8YH4z9lj6zPETBl-2" value="&lt;p style=&quot;margin:0px;margin-top:4px;text-align:center;&quot;&gt;ManureRecyclingProductType&lt;br&gt;&lt;/p&gt;&lt;hr size=&quot;1&quot;&gt;&lt;p style=&quot;margin:0px;margin-left:4px;&quot;&gt;&amp;nbsp;&lt;br&gt;&lt;/p&gt;&lt;hr size=&quot;1&quot;&gt;&lt;p style=&quot;margin:0px;margin-left:4px;&quot;&gt;&lt;br&gt;&lt;/p&gt;" style="verticalAlign=top;align=left;overflow=fill;fontSize=12;fontFamily=Verdana;html=1;strokeWidth=2;fontStyle=1" parent="WIyWlLk6GJQsqaUBKTNV-1" vertex="1">
          <mxGeometry x="210" y="200" width="224" height="85" as="geometry" />
        </mxCell>
        <mxCell id="3pSlS8YH4z9lj6zPETBl-3" value="" style="rounded=0;whiteSpace=wrap;html=1;fillColor=#dae8fc;strokeColor=#6c8ebf;" parent="WIyWlLk6GJQsqaUBKTNV-1" vertex="1">
          <mxGeometry x="359" y="710" width="721" height="270" as="geometry" />
        </mxCell>
        <mxCell id="3pSlS8YH4z9lj6zPETBl-4" value="Dependent Elements &lt;br&gt;from eCH-0265&lt;br&gt;Areas and Crops" style="text;html=1;strokeColor=none;fillColor=none;align=left;verticalAlign=middle;whiteSpace=wrap;rounded=0;strokeWidth=2;fontFamily=Verdana;" parent="WIyWlLk6GJQsqaUBKTNV-1" vertex="1">
          <mxGeometry x="369" y="910" width="290" height="30" as="geometry" />
        </mxCell>
        <mxCell id="3pSlS8YH4z9lj6zPETBl-7" value="&lt;p style=&quot;margin:0px;margin-top:4px;text-align:center;&quot;&gt;&lt;i&gt;&amp;lt;&amp;lt;enumeration&amp;gt;&amp;gt;&lt;/i&gt;&lt;br&gt;&lt;b&gt;CultivationType&lt;/b&gt;&lt;/p&gt;&lt;hr size=&quot;1&quot;&gt;&lt;p style=&quot;margin:0px;margin-left:4px;&quot;&gt;+ item: EnumeratedItem&lt;br&gt;&lt;/p&gt;&lt;hr size=&quot;1&quot;&gt;&lt;p style=&quot;margin:0px;margin-left:4px;&quot;&gt;&lt;br&gt;&lt;/p&gt;" style="verticalAlign=top;align=left;overflow=fill;fontSize=12;fontFamily=Verdana;html=1;strokeWidth=2;" parent="WIyWlLk6GJQsqaUBKTNV-1" vertex="1">
          <mxGeometry x="870" y="740" width="181" height="90" as="geometry" />
        </mxCell>
        <mxCell id="3pSlS8YH4z9lj6zPETBl-11" value="" style="endArrow=classic;html=1;fontFamily=Comic Sans MS;curved=1;" parent="WIyWlLk6GJQsqaUBKTNV-1" source="RBpm3ApPPATKOrZNFH4c-10" target="RBpm3ApPPATKOrZNFH4c-12" edge="1">
          <mxGeometry width="50" height="50" relative="1" as="geometry">
            <mxPoint x="570.9772727272725" y="690" as="sourcePoint" />
            <mxPoint x="1118.2105263157896" y="730" as="targetPoint" />
          </mxGeometry>
        </mxCell>
        <mxCell id="3pSlS8YH4z9lj6zPETBl-17" value="" style="endArrow=classic;html=1;fontFamily=Comic Sans MS;curved=1;exitX=0.75;exitY=1;exitDx=0;exitDy=0;entryX=0.831;entryY=0.008;entryDx=0;entryDy=0;entryPerimeter=0;" parent="WIyWlLk6GJQsqaUBKTNV-1" source="RBpm3ApPPATKOrZNFH4c-10" target="RBpm3ApPPATKOrZNFH4c-13" edge="1">
          <mxGeometry width="50" height="50" relative="1" as="geometry">
            <mxPoint x="680.6800000000001" y="575" as="sourcePoint" />
            <mxPoint x="760.04" y="597.97" as="targetPoint" />
          </mxGeometry>
        </mxCell>
        <mxCell id="3pSlS8YH4z9lj6zPETBl-18" value="" style="rounded=0;whiteSpace=wrap;html=1;fillColor=#dae8fc;strokeColor=#6c8ebf;" parent="WIyWlLk6GJQsqaUBKTNV-1" vertex="1">
          <mxGeometry x="669" y="142.5" width="210" height="147.5" as="geometry" />
        </mxCell>
        <mxCell id="3pSlS8YH4z9lj6zPETBl-19" value="Dependent Elements &lt;br&gt;from eCH-0264&lt;br&gt;Soil Indicators" style="text;html=1;strokeColor=none;fillColor=none;align=left;verticalAlign=middle;whiteSpace=wrap;rounded=0;strokeWidth=2;fontFamily=Verdana;" parent="WIyWlLk6GJQsqaUBKTNV-1" vertex="1">
          <mxGeometry x="679" y="150" width="290" height="30" as="geometry" />
        </mxCell>
        <mxCell id="3pSlS8YH4z9lj6zPETBl-20" value="&lt;p style=&quot;margin:0px;margin-top:4px;text-align:center;&quot;&gt;&lt;b&gt;SoilSample&lt;/b&gt;&lt;/p&gt;&lt;hr size=&quot;1&quot;&gt;&lt;p style=&quot;margin:0px;margin-left:4px;&quot;&gt;&amp;nbsp;&lt;br&gt;&lt;/p&gt;&lt;hr size=&quot;1&quot;&gt;&lt;p style=&quot;margin:0px;margin-left:4px;&quot;&gt;&lt;br&gt;&lt;/p&gt;" style="verticalAlign=top;align=left;overflow=fill;fontSize=12;fontFamily=Verdana;html=1;strokeWidth=2;" parent="WIyWlLk6GJQsqaUBKTNV-1" vertex="1">
          <mxGeometry x="689" y="200" width="160" height="68" as="geometry" />
        </mxCell>
        <mxCell id="3pSlS8YH4z9lj6zPETBl-22" value="" style="endArrow=classic;html=1;fontFamily=Comic Sans MS;curved=1;exitX=0.429;exitY=-0.02;exitDx=0;exitDy=0;exitPerimeter=0;" parent="WIyWlLk6GJQsqaUBKTNV-1" target="3pSlS8YH4z9lj6zPETBl-20" edge="1" source="RBpm3ApPPATKOrZNFH4c-8">
          <mxGeometry width="50" height="50" relative="1" as="geometry">
            <mxPoint x="734" y="370" as="sourcePoint" />
            <mxPoint x="367.75" y="890" as="targetPoint" />
          </mxGeometry>
        </mxCell>
        <mxCell id="3pSlS8YH4z9lj6zPETBl-27" value="" style="endArrow=classic;html=1;fontFamily=Comic Sans MS;curved=1;startArrow=none;entryX=0;entryY=0.5;entryDx=0;entryDy=0;exitX=1;exitY=0.75;exitDx=0;exitDy=0;" parent="WIyWlLk6GJQsqaUBKTNV-1" target="3pSlS8YH4z9lj6zPETBl-47" edge="1" source="RBpm3ApPPATKOrZNFH4c-8">
          <mxGeometry width="50" height="50" relative="1" as="geometry">
            <mxPoint x="789" y="424.6315789473683" as="sourcePoint" />
            <mxPoint x="279" y="160" as="targetPoint" />
          </mxGeometry>
        </mxCell>
        <mxCell id="3pSlS8YH4z9lj6zPETBl-28" value="" style="endArrow=classic;html=1;fontFamily=Comic Sans MS;curved=1;" parent="WIyWlLk6GJQsqaUBKTNV-1" source="RBpm3ApPPATKOrZNFH4c-7" target="3pSlS8YH4z9lj6zPETBl-2" edge="1">
          <mxGeometry width="50" height="50" relative="1" as="geometry">
            <mxPoint x="320.8699999999999" y="476.70000000000005" as="sourcePoint" />
            <mxPoint x="278.69000000000005" y="462.29999999999995" as="targetPoint" />
          </mxGeometry>
        </mxCell>
        <mxCell id="3pSlS8YH4z9lj6zPETBl-30" value="" style="endArrow=classic;html=1;fontFamily=Comic Sans MS;curved=1;entryX=0;entryY=0.5;entryDx=0;entryDy=0;exitX=0.893;exitY=-0.003;exitDx=0;exitDy=0;exitPerimeter=0;" parent="WIyWlLk6GJQsqaUBKTNV-1" target="A5fvS7BDDAw0l9XVEY4Y-54" edge="1" source="RBpm3ApPPATKOrZNFH4c-8">
          <mxGeometry width="50" height="50" relative="1" as="geometry">
            <mxPoint x="770.52" y="367.5" as="sourcePoint" />
            <mxPoint x="1155.6" y="510" as="targetPoint" />
          </mxGeometry>
        </mxCell>
        <mxCell id="3pSlS8YH4z9lj6zPETBl-33" value="" style="endArrow=classic;html=1;fontFamily=Comic Sans MS;curved=1;exitX=0.164;exitY=1;exitDx=0;exitDy=0;exitPerimeter=0;entryX=1;entryY=0.25;entryDx=0;entryDy=0;" parent="WIyWlLk6GJQsqaUBKTNV-1" source="RBpm3ApPPATKOrZNFH4c-11" target="RBpm3ApPPATKOrZNFH4c-13" edge="1">
          <mxGeometry width="50" height="50" relative="1" as="geometry">
            <mxPoint x="929" y="780" as="sourcePoint" />
            <mxPoint x="291.5" y="943" as="targetPoint" />
          </mxGeometry>
        </mxCell>
        <mxCell id="3pSlS8YH4z9lj6zPETBl-34" value="" style="endArrow=classic;html=1;fontFamily=Comic Sans MS;curved=1;" parent="WIyWlLk6GJQsqaUBKTNV-1" source="RBpm3ApPPATKOrZNFH4c-11" target="3pSlS8YH4z9lj6zPETBl-7" edge="1">
          <mxGeometry width="50" height="50" relative="1" as="geometry">
            <mxPoint x="1040.9800000000005" y="823.0900000000001" as="sourcePoint" />
            <mxPoint x="695.25" y="819.6400000000001" as="targetPoint" />
          </mxGeometry>
        </mxCell>
        <mxCell id="3pSlS8YH4z9lj6zPETBl-47" value="&lt;p style=&quot;margin:0px;margin-top:4px;text-align:center;&quot;&gt;&lt;b&gt;Person&lt;/b&gt;&lt;/p&gt;&lt;hr size=&quot;1&quot;&gt;&lt;p style=&quot;margin:0px;margin-left:4px;&quot;&gt;&amp;nbsp;&lt;br&gt;&lt;/p&gt;&lt;hr size=&quot;1&quot;&gt;&lt;p style=&quot;margin:0px;margin-left:4px;&quot;&gt;&lt;br&gt;&lt;/p&gt;" style="verticalAlign=top;align=left;overflow=fill;fontSize=12;fontFamily=Verdana;html=1;strokeWidth=2;" parent="WIyWlLk6GJQsqaUBKTNV-1" vertex="1">
          <mxGeometry x="1017.5" y="382" width="150" height="90" as="geometry" />
        </mxCell>
        <mxCell id="3pSlS8YH4z9lj6zPETBl-48" value="calculatedFor" style="edgeLabel;resizable=0;html=1;align=center;verticalAlign=middle;sketch=1;fontFamily=Verdana;strokeWidth=2;" parent="WIyWlLk6GJQsqaUBKTNV-1" connectable="0" vertex="1">
          <mxGeometry x="909.9992095369237" y="308.4976021193165" as="geometry">
            <mxPoint x="-13" y="16" as="offset" />
          </mxGeometry>
        </mxCell>
        <mxCell id="3pSlS8YH4z9lj6zPETBl-49" value="requestedBy" style="edgeLabel;resizable=0;html=1;align=center;verticalAlign=middle;sketch=1;fontFamily=Verdana;strokeWidth=2;" parent="WIyWlLk6GJQsqaUBKTNV-1" connectable="0" vertex="1">
          <mxGeometry x="949.9992095369237" y="399.9976021193165" as="geometry">
            <mxPoint x="-13" y="16" as="offset" />
          </mxGeometry>
        </mxCell>
        <mxCell id="3pSlS8YH4z9lj6zPETBl-51" value="using" style="edgeLabel;resizable=0;html=1;align=center;verticalAlign=middle;sketch=1;fontFamily=Verdana;strokeWidth=2;" parent="WIyWlLk6GJQsqaUBKTNV-1" connectable="0" vertex="1">
          <mxGeometry x="613.9992095369237" y="299.9976021193165" as="geometry">
            <mxPoint x="-13" y="16" as="offset" />
          </mxGeometry>
        </mxCell>
        <mxCell id="3pSlS8YH4z9lj6zPETBl-53" value="" style="endArrow=classic;html=1;fontFamily=Comic Sans MS;curved=1;exitX=0.469;exitY=1.035;exitDx=0;exitDy=0;exitPerimeter=0;startArrow=none;" parent="WIyWlLk6GJQsqaUBKTNV-1" source="RBpm3ApPPATKOrZNFH4c-9" target="RBpm3ApPPATKOrZNFH4c-13" edge="1">
          <mxGeometry width="50" height="50" relative="1" as="geometry">
            <mxPoint x="405.0799999999999" y="575" as="sourcePoint" />
            <mxPoint x="719.5" y="910.5" as="targetPoint" />
          </mxGeometry>
        </mxCell>
        <mxCell id="AsWOrN72vH-odrBC8Jqx-6" value="&lt;p style=&quot;margin:0px;margin-top:4px;text-align:center;&quot;&gt;&lt;i&gt;&amp;lt;&amp;lt;enumeration&amp;gt;&amp;gt;&lt;/i&gt;&lt;br&gt;&lt;b&gt;CalculatorHumus&lt;/b&gt;&lt;/p&gt;&lt;hr size=&quot;1&quot;&gt;&lt;p style=&quot;margin:0px;margin-left:4px;&quot;&gt;&amp;nbsp;+ item: EnumeratedItem&lt;br&gt;&lt;/p&gt;&lt;hr size=&quot;1&quot;&gt;&lt;p style=&quot;margin:0px;margin-left:4px;&quot;&gt;&lt;br&gt;&lt;/p&gt;" style="verticalAlign=top;align=left;overflow=fill;fontSize=12;fontFamily=Verdana;html=1;strokeWidth=2;" parent="WIyWlLk6GJQsqaUBKTNV-1" vertex="1">
          <mxGeometry x="489" y="189" width="150" height="77.5" as="geometry" />
        </mxCell>
        <mxCell id="w7iu7-4VkMwNYnt216xl-0" value="Dependent Elements &lt;br&gt;from eCH-0264&lt;br&gt;Products" style="text;html=1;strokeColor=none;fillColor=none;align=left;verticalAlign=middle;whiteSpace=wrap;rounded=0;strokeWidth=2;fontFamily=Verdana;" parent="WIyWlLk6GJQsqaUBKTNV-1" vertex="1">
          <mxGeometry x="269" y="150" width="290" height="30" as="geometry" />
        </mxCell>
        <mxCell id="z8zTo1hWGoTgo93Ajzmf-1" value="0..*" style="edgeLabel;resizable=0;html=1;align=center;verticalAlign=middle;sketch=1;fontFamily=Comic Sans MS;strokeWidth=2;" parent="WIyWlLk6GJQsqaUBKTNV-1" connectable="0" vertex="1">
          <mxGeometry x="889.9992095369237" y="509.9976021193165" as="geometry">
            <mxPoint x="-13" y="16" as="offset" />
          </mxGeometry>
        </mxCell>
        <mxCell id="z8zTo1hWGoTgo93Ajzmf-4" value="1..*" style="edgeLabel;resizable=0;html=1;align=center;verticalAlign=middle;sketch=1;fontFamily=Comic Sans MS;strokeWidth=2;" parent="WIyWlLk6GJQsqaUBKTNV-1" connectable="0" vertex="1">
          <mxGeometry x="788.9992095369237" y="261.9976021193165" as="geometry">
            <mxPoint x="-13" y="16" as="offset" />
          </mxGeometry>
        </mxCell>
        <mxCell id="z8zTo1hWGoTgo93Ajzmf-5" value="1..*" style="edgeLabel;resizable=0;html=1;align=center;verticalAlign=middle;sketch=1;fontFamily=Comic Sans MS;strokeWidth=2;" parent="WIyWlLk6GJQsqaUBKTNV-1" connectable="0" vertex="1">
          <mxGeometry x="688.9992095369237" y="486.9976021193165" as="geometry">
            <mxPoint x="-13" y="16" as="offset" />
          </mxGeometry>
        </mxCell>
        <mxCell id="RBpm3ApPPATKOrZNFH4c-7" value="&lt;p style=&quot;margin:0px;margin-top:4px;text-align:center;&quot;&gt;&lt;b&gt;AppliedFertiliser&lt;/b&gt;&lt;/p&gt;&lt;hr size=&quot;1&quot;&gt;&lt;p style=&quot;margin:0px;margin-left:4px;&quot;&gt;&lt;span style=&quot;background-color: initial;&quot;&gt;+ appliedQuantityInKg: integer&lt;/span&gt;&lt;br&gt;&lt;/p&gt;&lt;hr size=&quot;1&quot;&gt;&lt;p style=&quot;margin:0px;margin-left:4px;&quot;&gt;&lt;br&gt;&lt;/p&gt;" style="verticalAlign=top;align=left;overflow=fill;fontSize=12;fontFamily=Verdana;html=1;strokeWidth=2;" parent="WIyWlLk6GJQsqaUBKTNV-1" vertex="1">
          <mxGeometry x="329" y="340" width="230" height="100" as="geometry" />
        </mxCell>
        <mxCell id="RBpm3ApPPATKOrZNFH4c-8" value="&lt;p style=&quot;margin:0px;margin-top:4px;text-align:center;&quot;&gt;&lt;b&gt;CalculationResultHumus&lt;/b&gt;&lt;/p&gt;&lt;hr size=&quot;1&quot;&gt;&lt;p style=&quot;margin:0px;margin-left:4px;&quot;&gt;&amp;nbsp;+ totalHumusChangeInKg: integer&lt;br&gt;&lt;/p&gt;&lt;p style=&quot;margin:0px;margin-left:4px;&quot;&gt;&amp;nbsp;+ totalHumusChangeInKgPerM2: integer&lt;/p&gt;&lt;hr size=&quot;1&quot;&gt;&lt;p style=&quot;margin:0px;margin-left:4px;&quot;&gt;&lt;br&gt;&lt;/p&gt;" style="verticalAlign=top;align=left;overflow=fill;fontSize=12;fontFamily=Verdana;html=1;strokeWidth=2;" parent="WIyWlLk6GJQsqaUBKTNV-1" vertex="1">
          <mxGeometry x="597.3" y="356.5" width="272.7" height="100" as="geometry" />
        </mxCell>
        <mxCell id="RBpm3ApPPATKOrZNFH4c-9" value="&lt;p style=&quot;margin:0px;margin-top:4px;text-align:center;&quot;&gt;&lt;b&gt;AppliedFertilisation&lt;/b&gt;&lt;/p&gt;&lt;hr size=&quot;1&quot;&gt;&lt;p style=&quot;margin:0px;margin-left:4px;&quot;&gt;&lt;span style=&quot;background-color: initial;&quot;&gt;&amp;nbsp;&lt;/span&gt;&lt;br&gt;&lt;/p&gt;&lt;hr size=&quot;1&quot;&gt;&lt;p style=&quot;margin:0px;margin-left:4px;&quot;&gt;&lt;br&gt;&lt;/p&gt;" style="verticalAlign=top;align=left;overflow=fill;fontSize=12;fontFamily=Verdana;html=1;strokeWidth=2;" parent="WIyWlLk6GJQsqaUBKTNV-1" vertex="1">
          <mxGeometry x="170" y="585" width="210" height="100" as="geometry" />
        </mxCell>
        <mxCell id="RBpm3ApPPATKOrZNFH4c-10" value="&lt;p style=&quot;margin:0px;margin-top:4px;text-align:center;&quot;&gt;&lt;b&gt;MainCropCalculation&lt;/b&gt;&lt;/p&gt;&lt;p style=&quot;margin:0px;margin-top:4px;text-align:center;&quot;&gt;&lt;b&gt;&lt;br&gt;&lt;/b&gt;&lt;/p&gt;&lt;hr size=&quot;1&quot;&gt;&lt;p style=&quot;margin:0px;margin-left:4px;&quot;&gt;+ humusChangeInKg: integer&lt;br&gt;&lt;/p&gt;&lt;p style=&quot;border-color: var(--border-color); margin: 0px 0px 0px 4px;&quot;&gt;+ humusChangeInKgPerM2: integer&lt;/p&gt;&lt;p style=&quot;border-color: var(--border-color); margin: 0px 0px 0px 4px;&quot;&gt;+ cropResiduesRetained: boolean&lt;/p&gt;&lt;hr size=&quot;1&quot;&gt;&lt;p style=&quot;margin:0px;margin-left:4px;&quot;&gt;&lt;br&gt;&lt;/p&gt;" style="verticalAlign=top;align=left;overflow=fill;fontSize=12;fontFamily=Verdana;html=1;strokeWidth=2;" parent="WIyWlLk6GJQsqaUBKTNV-1" vertex="1">
          <mxGeometry x="530" y="520" width="240" height="130" as="geometry" />
        </mxCell>
        <mxCell id="RBpm3ApPPATKOrZNFH4c-11" value="&lt;p style=&quot;margin:0px;margin-top:4px;text-align:center;&quot;&gt;&lt;b&gt;CatchCropCalculation&lt;/b&gt;&lt;/p&gt;&lt;hr size=&quot;1&quot;&gt;&lt;p style=&quot;margin:0px;margin-left:4px;&quot;&gt;&amp;nbsp; + humusChangeInKg: integer&lt;br&gt;&lt;/p&gt;&lt;p style=&quot;border-color: var(--border-color); margin: 0px 0px 0px 4px;&quot;&gt;&amp;nbsp; + humusChangeInKgPerM2: integer&lt;br style=&quot;border-color: var(--border-color);&quot;&gt;&lt;/p&gt;&lt;p style=&quot;border-color: var(--border-color); margin: 0px 0px 0px 4px;&quot;&gt;&amp;nbsp; + harvested: boolean&lt;/p&gt;&lt;hr size=&quot;1&quot;&gt;&lt;p style=&quot;margin:0px;margin-left:4px;&quot;&gt;&lt;br&gt;&lt;/p&gt;" style="verticalAlign=top;align=left;overflow=fill;fontSize=12;fontFamily=Verdana;html=1;strokeWidth=2;" parent="WIyWlLk6GJQsqaUBKTNV-1" vertex="1">
          <mxGeometry x="827" y="540" width="265" height="120" as="geometry" />
        </mxCell>
        <mxCell id="RBpm3ApPPATKOrZNFH4c-12" value="&lt;p style=&quot;margin:0px;margin-top:4px;text-align:center;&quot;&gt;&lt;i&gt;&amp;lt;&amp;lt;enumeration&amp;gt;&amp;gt;&lt;/i&gt;&lt;br&gt;&lt;b&gt;DirectPaymentCrop&lt;/b&gt;&lt;/p&gt;&lt;hr size=&quot;1&quot;&gt;&lt;p style=&quot;margin:0px;margin-left:4px;&quot;&gt;+ item: EnumeratedItem&lt;br&gt;&lt;/p&gt;&lt;hr size=&quot;1&quot;&gt;&lt;p style=&quot;margin:0px;margin-left:4px;&quot;&gt;&lt;br&gt;&lt;/p&gt;" style="verticalAlign=top;align=left;overflow=fill;fontSize=12;fontFamily=Verdana;html=1;strokeWidth=2;" parent="WIyWlLk6GJQsqaUBKTNV-1" vertex="1">
          <mxGeometry x="470" y="730" width="181" height="77.5" as="geometry" />
        </mxCell>
        <mxCell id="RBpm3ApPPATKOrZNFH4c-13" value="&lt;p style=&quot;margin:0px;margin-top:4px;text-align:center;&quot;&gt;&lt;b&gt;Area&amp;nbsp;&lt;/b&gt;&lt;/p&gt;&lt;hr size=&quot;1&quot;&gt;&lt;p style=&quot;margin:0px;margin-left:4px;&quot;&gt;&amp;nbsp;&lt;/p&gt;" style="verticalAlign=top;align=left;overflow=fill;fontSize=12;fontFamily=Verdana;html=1;strokeWidth=2;" parent="WIyWlLk6GJQsqaUBKTNV-1" vertex="1">
          <mxGeometry x="549" y="870" width="130" height="78" as="geometry" />
        </mxCell>
        <mxCell id="RBpm3ApPPATKOrZNFH4c-15" value="&lt;p style=&quot;margin:0px;margin-top:4px;text-align:center;&quot;&gt;&lt;b&gt;EnumeratedItem&lt;/b&gt;&lt;/p&gt;&lt;hr size=&quot;1&quot;&gt;&lt;p style=&quot;margin:0px;margin-left:4px;&quot;&gt;&lt;br&gt;&lt;/p&gt;" style="verticalAlign=top;align=left;overflow=fill;fontSize=12;fontFamily=Verdana;html=1;strokeWidth=2;" parent="WIyWlLk6GJQsqaUBKTNV-1" vertex="1">
          <mxGeometry x="1010" y="60.5" width="140" height="80" as="geometry" />
        </mxCell>
        <mxCell id="RBpm3ApPPATKOrZNFH4c-16" value="&lt;p style=&quot;margin:0px;margin-top:4px;text-align:center;&quot;&gt;&lt;b&gt;Identifier&lt;/b&gt;&lt;/p&gt;&lt;hr size=&quot;1&quot;&gt;&lt;p style=&quot;margin:0px;margin-left:4px;&quot;&gt;&lt;br&gt;&lt;/p&gt;" style="verticalAlign=top;align=left;overflow=fill;fontSize=12;fontFamily=Verdana;html=1;strokeWidth=2;" parent="WIyWlLk6GJQsqaUBKTNV-1" vertex="1">
          <mxGeometry x="1225" y="60.5" width="140" height="70" as="geometry" />
        </mxCell>
        <mxCell id="RBpm3ApPPATKOrZNFH4c-17" value="&lt;p style=&quot;margin:0px;margin-top:4px;text-align:center;&quot;&gt;&lt;i&gt;&amp;lt;&amp;lt;enumeration&amp;gt;&amp;gt;&lt;/i&gt;&lt;br&gt;&lt;b&gt;Unit&lt;/b&gt;&lt;/p&gt;&lt;hr size=&quot;1&quot;&gt;&lt;p style=&quot;margin:0px;margin-left:4px;&quot;&gt;&lt;br&gt;&lt;/p&gt;" style="verticalAlign=top;align=left;overflow=fill;fontSize=12;fontFamily=Verdana;html=1;strokeWidth=2;" parent="WIyWlLk6GJQsqaUBKTNV-1" vertex="1">
          <mxGeometry x="1015" y="160.5" width="140" height="80" as="geometry" />
        </mxCell>
        <mxCell id="RBpm3ApPPATKOrZNFH4c-18" value="&lt;p style=&quot;margin:0px;margin-top:4px;text-align:center;&quot;&gt;&lt;b&gt;Descriptor&lt;/b&gt;&lt;/p&gt;&lt;hr size=&quot;1&quot;&gt;&lt;p style=&quot;margin:0px;margin-left:4px;&quot;&gt;&lt;br&gt;&lt;/p&gt;" style="verticalAlign=top;align=left;overflow=fill;fontSize=12;fontFamily=Verdana;html=1;strokeWidth=2;" parent="WIyWlLk6GJQsqaUBKTNV-1" vertex="1">
          <mxGeometry x="1220" y="160.5" width="140" height="80" as="geometry" />
        </mxCell>
        <mxCell id="RBpm3ApPPATKOrZNFH4c-19" value="&lt;p style=&quot;margin:0px;margin-top:4px;text-align:center;&quot;&gt;&lt;b&gt;LocalUnit&lt;/b&gt;&lt;/p&gt;&lt;hr size=&quot;1&quot;&gt;&lt;p style=&quot;margin:0px;margin-left:4px;&quot;&gt;&amp;nbsp;&lt;br&gt;&lt;/p&gt;&lt;hr size=&quot;1&quot;&gt;&lt;p style=&quot;margin:0px;margin-left:4px;&quot;&gt;&lt;br&gt;&lt;/p&gt;" style="verticalAlign=top;align=left;overflow=fill;fontSize=12;fontFamily=Verdana;html=1;strokeWidth=2;" parent="WIyWlLk6GJQsqaUBKTNV-1" vertex="1">
          <mxGeometry x="1015" y="263.5" width="145" height="90" as="geometry" />
        </mxCell>
        <mxCell id="RBpm3ApPPATKOrZNFH4c-20" value="&lt;p style=&quot;margin:0px;margin-top:4px;text-align:center;&quot;&gt;&lt;b&gt;LegalUnit&lt;/b&gt;&lt;/p&gt;&lt;hr size=&quot;1&quot;&gt;&lt;p style=&quot;margin:0px;margin-left:4px;&quot;&gt;&amp;nbsp;&lt;br&gt;&lt;/p&gt;&lt;hr size=&quot;1&quot;&gt;&lt;p style=&quot;margin:0px;margin-left:4px;&quot;&gt;&lt;br&gt;&lt;/p&gt;" style="verticalAlign=top;align=left;overflow=fill;fontSize=12;fontFamily=Verdana;html=1;strokeWidth=2;" parent="WIyWlLk6GJQsqaUBKTNV-1" vertex="1">
          <mxGeometry x="1215" y="263.5" width="150" height="90" as="geometry" />
        </mxCell>
        <mxCell id="RBpm3ApPPATKOrZNFH4c-26" value="" style="endArrow=none;startArrow=diamondThin;endFill=0;startFill=1;html=1;verticalAlign=bottom;labelBackgroundColor=none;strokeWidth=1;startSize=8;endSize=8;rounded=0;entryX=0.25;entryY=1;entryDx=0;entryDy=0;targetPerimeterSpacing=3;" parent="WIyWlLk6GJQsqaUBKTNV-1" source="RBpm3ApPPATKOrZNFH4c-10" target="RBpm3ApPPATKOrZNFH4c-8" edge="1">
          <mxGeometry width="160" relative="1" as="geometry">
            <mxPoint x="489" y="470" as="sourcePoint" />
            <mxPoint x="649" y="470" as="targetPoint" />
          </mxGeometry>
        </mxCell>
        <mxCell id="RBpm3ApPPATKOrZNFH4c-29" value="" style="endArrow=none;startArrow=diamondThin;endFill=0;startFill=1;html=1;verticalAlign=bottom;labelBackgroundColor=none;strokeWidth=1;startSize=8;endSize=8;rounded=0;entryX=0.83;entryY=0.986;entryDx=0;entryDy=0;targetPerimeterSpacing=3;exitX=0.089;exitY=-0.029;exitDx=0;exitDy=0;exitPerimeter=0;entryPerimeter=0;" parent="WIyWlLk6GJQsqaUBKTNV-1" source="RBpm3ApPPATKOrZNFH4c-11" target="RBpm3ApPPATKOrZNFH4c-8" edge="1">
          <mxGeometry width="160" relative="1" as="geometry">
            <mxPoint x="843" y="523" as="sourcePoint" />
            <mxPoint x="825" y="490" as="targetPoint" />
          </mxGeometry>
        </mxCell>
        <mxCell id="RBpm3ApPPATKOrZNFH4c-32" value="" style="endArrow=none;startArrow=diamondThin;endFill=0;startFill=1;html=1;verticalAlign=bottom;labelBackgroundColor=none;strokeWidth=1;startSize=8;endSize=8;rounded=0;entryX=0.133;entryY=1.005;entryDx=0;entryDy=0;targetPerimeterSpacing=3;entryPerimeter=0;" parent="WIyWlLk6GJQsqaUBKTNV-1" source="RBpm3ApPPATKOrZNFH4c-9" target="RBpm3ApPPATKOrZNFH4c-8" edge="1">
          <mxGeometry width="160" relative="1" as="geometry">
            <mxPoint x="680" y="500" as="sourcePoint" />
            <mxPoint x="662" y="467" as="targetPoint" />
          </mxGeometry>
        </mxCell>
        <mxCell id="RBpm3ApPPATKOrZNFH4c-33" value="0..*" style="edgeLabel;resizable=0;html=1;align=center;verticalAlign=middle;sketch=1;fontFamily=Comic Sans MS;strokeWidth=2;" parent="WIyWlLk6GJQsqaUBKTNV-1" connectable="0" vertex="1">
          <mxGeometry x="399.9992095369237" y="549.9976021193165" as="geometry">
            <mxPoint x="-13" y="16" as="offset" />
          </mxGeometry>
        </mxCell>
        <mxCell id="RBpm3ApPPATKOrZNFH4c-35" value="" style="endArrow=none;startArrow=diamondThin;endFill=0;startFill=1;html=1;verticalAlign=bottom;labelBackgroundColor=none;strokeWidth=1;startSize=8;endSize=8;rounded=0;entryX=0.624;entryY=-0.015;entryDx=0;entryDy=0;targetPerimeterSpacing=3;entryPerimeter=0;exitX=0.305;exitY=1;exitDx=0;exitDy=0;exitPerimeter=0;" parent="WIyWlLk6GJQsqaUBKTNV-1" source="RBpm3ApPPATKOrZNFH4c-7" target="RBpm3ApPPATKOrZNFH4c-9" edge="1">
          <mxGeometry width="160" relative="1" as="geometry">
            <mxPoint x="500" y="525" as="sourcePoint" />
            <mxPoint x="637" y="467" as="targetPoint" />
          </mxGeometry>
        </mxCell>
        <mxCell id="RBpm3ApPPATKOrZNFH4c-36" value="1..*" style="edgeLabel;resizable=0;html=1;align=center;verticalAlign=middle;sketch=1;fontFamily=Comic Sans MS;strokeWidth=2;" parent="WIyWlLk6GJQsqaUBKTNV-1" connectable="0" vertex="1">
          <mxGeometry x="423.9992095369237" y="439.9976021193165" as="geometry">
            <mxPoint x="-13" y="16" as="offset" />
          </mxGeometry>
        </mxCell>
        <mxCell id="RBpm3ApPPATKOrZNFH4c-38" value="&lt;p style=&quot;margin:0px;margin-top:4px;text-align:center;&quot;&gt;&lt;i&gt;«enumeration»&lt;/i&gt;&lt;br&gt;&lt;b&gt;FertiliserDilution&lt;/b&gt;&lt;/p&gt;&lt;hr size=&quot;1&quot;&gt;&lt;p style=&quot;margin:0px;margin-left:4px;&quot;&gt;+ id: Identifer&lt;br&gt;&lt;/p&gt;&lt;p style=&quot;margin:0px;margin-left:4px;&quot;&gt;+ descriptor: Descriptor&lt;/p&gt;&lt;p style=&quot;margin:0px;margin-left:4px;&quot;&gt;+ numeratorSlurry: integer&lt;/p&gt;&lt;p style=&quot;margin:0px;margin-left:4px;&quot;&gt;+ denominator: integer&lt;/p&gt;&lt;hr size=&quot;1&quot;&gt;&lt;p style=&quot;margin:0px;margin-left:4px;&quot;&gt;&lt;br&gt;&lt;/p&gt;" style="verticalAlign=top;align=left;overflow=fill;fontSize=12;fontFamily=Verdana;html=1;sketch=0;strokeWidth=2;" parent="WIyWlLk6GJQsqaUBKTNV-1" vertex="1">
          <mxGeometry x="89" y="380" width="180" height="140" as="geometry" />
        </mxCell>
        <mxCell id="RBpm3ApPPATKOrZNFH4c-39" value="" style="endArrow=classic;html=1;fontFamily=Comic Sans MS;curved=1;" parent="WIyWlLk6GJQsqaUBKTNV-1" source="RBpm3ApPPATKOrZNFH4c-7" target="RBpm3ApPPATKOrZNFH4c-38" edge="1">
          <mxGeometry width="50" height="50" relative="1" as="geometry">
            <mxPoint x="611.56" y="375" as="sourcePoint" />
            <mxPoint x="554" y="251" as="targetPoint" />
          </mxGeometry>
        </mxCell>
      </root>
    </mxGraphModel>
  </diagram>
</mxfile>
